<svg width="181" height="36" viewBox="0 0 181 36" fill="none" xmlns="http://www.w3.org/2000/svg">
<g clip-path="url(#clip0_714_5974)">
<path d="M10.2568 35.8198H7.4459C7.23687 35.82 7.04293 35.7093 6.93449 35.5278C6.82604 35.3464 6.81886 35.1206 6.91553 34.9324L8.61569 31.6231L8.63735 31.5806L10.3315 28.2812C10.8253 29.3196 11.1689 30.43 11.2541 31.5806C11.2541 31.5951 11.2541 31.6087 11.2541 31.6231C11.3504 32.9838 11.0778 34.4007 10.2568 35.8198Z" fill="#202020"/>
<path d="M10.2502 35.8216C11.0719 34.4017 11.3453 32.9833 11.252 31.6203C11.252 31.6059 11.252 31.5915 11.252 31.5771C11.1668 30.4257 10.8224 29.3138 10.3287 28.2747L10.381 28.1738C10.484 27.9732 10.6885 27.8475 10.9113 27.8477H12.4711C13.7489 29.0241 14.964 30.2691 16.1111 31.5771L16.1485 31.6203C17.3183 32.9682 18.3828 34.3797 19.2463 35.8216H10.2502Z" fill="#202020"/>
<path d="M31.7548 31.574L30.1219 28.1843C30.0216 27.9759 29.8132 27.8437 29.5848 27.8438H12.4592C13.7371 29.0202 14.9522 30.2652 16.0993 31.5732L16.1367 31.6164C17.3065 32.9643 18.3709 34.3758 19.2344 35.8177H32.8372C33.0439 35.8177 33.2359 35.7092 33.345 35.5309C33.454 35.3526 33.4645 35.1297 33.3728 34.9416L31.8571 31.8319L31.7548 31.574Z" fill="#202020"/>
<path d="M21.208 16.2227L12.8836 18.0096L5.90814 19.5001L4.81604 19.7337C4.8631 19.7177 5.27171 19.6191 5.90814 19.3961C7.18699 18.9479 9.38315 17.9998 11.3978 16.2227H21.208Z" fill="#202020"/>
<path d="M11.2623 26.9126H10.4316C10.2413 26.9127 10.0624 27.0048 9.94983 27.1606L9.73395 27.4595C8.6396 25.5299 7.09856 23.9029 5.91084 22.8145C5.18925 22.1531 4.59837 21.6897 4.3175 21.4766C4.78288 21.7997 5.32072 22.1812 5.91084 22.6143C7.44442 23.7361 9.33655 25.206 11.2623 26.9126Z" fill="#202020"/>
<path d="M1.29859 31.4909C0.683814 31.4909 0.178101 30.96 0.178101 30.3031V13.844C0.178101 13.191 0.681573 12.6562 1.29859 12.6562H4.49049C4.79426 12.6577 5.08367 12.7877 5.28902 13.015C5.49518 13.2402 5.60945 13.5365 5.60874 13.844V14.6495C5.60878 15.0033 5.72851 15.3463 5.94787 15.6212C6.24759 15.9994 6.70006 16.2192 7.17817 16.2188H11.4689C9.44081 17.9816 7.23419 18.9206 5.94787 19.3643C5.30844 19.585 4.89685 19.6828 4.84979 19.6988L5.94787 19.4712L12.9629 17.9952L6.56489 19.343L5.94787 19.4735L2.46913 20.2085C2.46913 20.2085 3.18773 20.6507 4.34482 21.4418C4.62793 21.6526 5.22179 22.1115 5.94787 22.7668C7.14306 23.8446 8.69232 25.4564 9.79264 27.367L6.79645 31.4484" fill="#202020"/>
<path d="M33.4127 31.5843L30.6368 27.195C30.527 27.0211 30.3375 26.9159 30.1341 26.9158H11.2636C9.34157 25.2123 7.45392 23.7454 5.92184 22.6243C5.33246 22.1928 4.79612 21.812 4.33149 21.4866C3.18262 20.691 2.46924 20.245 2.46924 20.245L5.92184 19.5039L6.53437 19.372L12.8838 18.0067L21.2285 16.2227H32.4498C33.4969 16.2198 34.345 15.3587 34.3479 14.2954V13.9708L34.3636 13.4861V13.4755C34.5261 12.9878 34.977 12.6597 35.4841 12.6602H37.3359C37.488 12.6601 37.64 12.673 37.79 12.6988L37.9738 12.6602H38.6804C39.3318 12.6622 39.8594 13.1979 39.8614 13.8593V30.4284C39.8594 31.0898 39.3318 31.6254 38.6804 31.6275" fill="#202020"/>
<path d="M32.0236 15.46H25.6278L32.6458 13.8945L32.7205 14.6196C32.7552 14.8282 32.6978 15.0418 32.5636 15.2036C32.4294 15.3654 32.2319 15.4592 32.0236 15.46Z" fill="#202020"/>
<path d="M31.0189 4.05824L23.8253 0.189984L29.2081 0.181641C29.8565 0.181641 30.4534 0.655692 30.5609 1.30495L31.0189 4.05824Z" fill="#202020"/>
<path d="M32.6346 13.7923L20.0455 0.191179L23.8246 0.183594L31.0181 4.04958L32.6346 13.7923Z" fill="#202020"/>
<path d="M12.2607 15.4614H7.70405C7.49943 15.4615 7.30474 15.3719 7.17003 15.2155C7.03532 15.0591 6.97375 14.8512 7.00113 14.6453L7.29321 12.7726C19.6746 8.38021 14.8864 1.27475 14.1409 0.277344H14.5435C17.8318 7.37446 15.4362 12.2523 12.2607 15.4614Z" fill="#202020"/>
<path d="M32.6251 13.8966L25.6221 15.4591H12.28C13.0883 14.6422 13.8816 13.7047 14.4956 12.6383C16.2339 9.61879 17.0989 4.68866 14.1415 0.275049L20.0487 0.263672L31.5054 12.6383L32.5437 13.8056L32.5721 13.8367L32.6251 13.8966Z" fill="#202020"/>
<path d="M7.35913 12.7979L8.8703 1.45256C8.95919 0.785849 9.4776 0.287526 10.1402 0.286009L14.221 0.275391C14.968 1.27735 19.7674 8.39722 7.35913 12.7979Z" fill="#202020"/>
<path d="M61.5477 9.39212C63.1453 10.1223 64.3781 11.1655 65.2461 12.5216C66.1141 13.8778 66.5478 15.4706 66.5473 17.3001C66.5473 19.1315 66.1136 20.7193 65.2461 22.0633C64.3786 23.4074 63.1458 24.444 61.5477 25.1731C59.9492 25.9063 58.0657 26.2729 55.8975 26.2729H51.7367V32.6442H47.0568C46.4952 32.6442 45.9565 32.4176 45.5594 32.0144C45.1622 31.6111 44.9391 31.0642 44.9391 30.4939V10.4472C44.9391 9.87688 45.1622 9.32994 45.5594 8.92668C45.9565 8.52342 46.4952 8.29688 47.0568 8.29688H55.8975C58.0657 8.29688 59.9492 8.66196 61.5477 9.39212ZM58.6561 19.9661C59.3638 19.3523 59.7176 18.477 59.7176 17.3403C59.7176 16.2035 59.3638 15.3224 58.6561 14.697C57.948 14.071 56.8974 13.7579 55.5045 13.7579H51.7367V20.8877H55.5045C56.8974 20.8877 57.948 20.5805 58.6561 19.9661Z" fill="#202020"/>
<path d="M78.5127 14.1627C79.5689 13.7344 80.7783 13.52 82.1408 13.5195V19.4357C81.6541 19.3735 81.1643 19.3388 80.6737 19.3318C79.2863 19.3318 78.2004 19.7128 77.4161 20.4748C76.6317 21.2368 76.2396 22.4029 76.2396 23.9729V32.6432H71.8577C71.2961 32.6432 70.7574 32.4166 70.3603 32.0133C69.9631 31.6101 69.74 31.0631 69.74 30.4929V15.9831C69.74 15.4128 69.9631 14.8659 70.3603 14.4626C70.7574 14.0593 71.2961 13.8328 71.8577 13.8328H75.94V16.0923C76.6109 15.2257 77.4997 14.5591 78.5127 14.1627Z" fill="#202020"/>
<path d="M85.2017 10.7074C84.4899 10.0786 84.0887 9.16219 84.1059 8.20437C84.0889 7.24661 84.4901 6.33028 85.2017 5.70138C85.9318 5.02937 86.8904 4.69336 88.0776 4.69336C89.2648 4.69336 90.2235 5.01192 90.9536 5.64905C91.6836 6.28668 92.0489 7.10356 92.0494 8.0997C92.0494 9.14236 91.6841 10.0055 90.9536 10.6892C90.223 11.3728 89.2644 11.7146 88.0776 11.7146C86.8904 11.7151 85.9318 11.3794 85.2017 10.7074ZM86.9459 13.8338H91.327V32.6442H86.9459C85.7763 32.6442 84.8282 31.6815 84.8282 30.4939V15.9841C84.8282 14.7966 85.7763 13.8338 86.9459 13.8338Z" fill="#202020"/>
<path d="M113.206 15.604C114.606 16.992 115.306 19.0859 115.306 21.8858V32.6441H110.924C109.755 32.6441 108.807 31.6813 108.807 30.4938V22.9461C108.807 20.3738 107.794 19.0877 105.769 19.0877C104.654 19.0877 103.762 19.4586 103.091 20.2004C102.42 20.9422 102.084 22.0546 102.084 23.5377V32.6441H97.628C96.4584 32.6441 95.5103 31.6813 95.5103 30.4938V15.984C95.5103 15.4137 95.7334 14.8668 96.1305 14.4635C96.5277 14.0603 97.0663 13.8337 97.628 13.8337H101.785V15.8816C102.518 15.1153 103.403 14.5176 104.383 14.1288C105.428 13.7161 106.54 13.5101 107.661 13.522C109.958 13.5215 111.806 14.2155 113.206 15.604Z" fill="#202020"/>
<path d="M132.126 31.8887C131.578 32.2361 130.911 32.5025 130.125 32.6881C129.3 32.8778 128.456 32.9712 127.61 32.9665C125.193 32.9665 123.335 32.364 122.035 31.159C120.735 29.954 120.085 28.159 120.085 25.7738V19.4443H118.456C118.175 19.4443 117.906 19.331 117.707 19.1295C117.509 18.9279 117.397 18.6545 117.397 18.3695V15.5889C117.397 15.3038 117.509 15.0305 117.707 14.8289C117.906 14.6274 118.175 14.5141 118.456 14.5141H120.087V11.7343C120.087 10.547 121.034 9.5844 122.204 9.58398H126.585V14.5141H130.843V19.4443H126.585V25.701C126.585 26.3735 126.762 26.9006 127.115 27.2824C127.469 27.6642 127.942 27.8553 128.534 27.8558C129.287 27.8558 129.948 27.6589 130.518 27.265L132.126 31.8887Z" fill="#202020"/>
<path d="M153.132 19.9799H156.99V30.0609C155.624 31.0575 154.053 31.8223 152.277 32.3553C150.549 32.8811 148.755 33.1504 146.951 33.1548C144.446 33.1548 142.193 32.616 140.19 31.5384C138.187 30.4609 136.616 28.9593 135.477 27.0338C134.338 25.1123 133.769 22.9339 133.769 20.4987C133.769 18.0635 134.338 15.8851 135.477 13.9636C136.615 12.0421 138.197 10.5416 140.223 9.46204C142.25 8.38246 144.538 7.84369 147.087 7.84571C149.318 7.84571 151.322 8.22798 153.098 8.99253C154.873 9.75708 156.353 10.8579 157.537 12.295L153.234 16.2633C151.618 14.4556 149.683 13.5518 147.429 13.5518C145.381 13.5518 143.73 14.1838 142.478 15.448C141.225 16.7121 140.599 18.398 140.6 20.5055C140.6 21.8496 140.884 23.0487 141.453 24.103C142.004 25.1388 142.833 25.9947 143.844 26.5711C144.868 27.1622 146.041 27.4578 147.361 27.4578C148.622 27.4647 149.869 27.1905 151.014 26.6546V22.1302C151.014 20.9426 151.962 19.9799 153.132 19.9799Z" fill="#202020"/>
<path d="M164.965 31.7013C163.367 30.867 162.118 29.7082 161.216 28.2252C160.315 26.7421 159.864 25.062 159.864 23.185C159.864 21.3313 160.315 19.6627 161.216 18.1791C162.118 16.6955 163.363 15.5426 164.951 14.7204C166.537 13.8982 168.335 13.4868 170.343 13.4863C172.351 13.4858 174.154 13.8972 175.752 14.7204C177.349 15.5431 178.594 16.6902 179.487 18.1616C180.38 19.6331 180.825 21.3073 180.822 23.1843C180.822 25.0613 180.377 26.7413 179.487 28.2244C178.597 29.7075 177.352 30.8662 175.752 31.7005C174.154 32.5349 172.351 32.952 170.343 32.952C168.356 32.9525 166.564 32.5356 164.965 31.7013ZM173.146 26.5042C173.876 25.7047 174.242 24.5981 174.242 23.1843C174.242 21.7937 173.877 20.7046 173.146 19.9167C172.416 19.1289 171.481 18.7353 170.343 18.7358C169.202 18.7358 168.266 19.1297 167.536 19.9175C166.806 20.7053 166.44 21.7945 166.44 23.185C166.44 24.6009 166.805 25.7075 167.536 26.5049C168.266 27.3023 169.202 27.7021 170.343 27.7041C171.483 27.7041 172.419 27.3044 173.149 26.5049L173.146 26.5042Z" fill="#202020"/>
</g>
<defs>
<clipPath id="clip0_714_5974">
<rect width="181" height="36" fill="white"/>
</clipPath>
</defs>
</svg>
