<?xml version="1.0" encoding="UTF-8" standalone="no" ?>
<!DOCTYPE svg PUBLIC "-//W3C//DTD SVG 1.1//EN" "http://www.w3.org/Graphics/SVG/1.1/DTD/svg11.dtd">
<svg xmlns="http://www.w3.org/2000/svg" xmlns:xlink="http://www.w3.org/1999/xlink" version="1.1" width="40.683299" height="36.639959" viewBox="234.2614689954581 136.57434753003415 40.683299 36.639959" xml:space="preserve">
<desc>Created with Fabric.js 5.3.0</desc>
<defs>
</defs>
<g transform="matrix(1 0 0 1 254.6031184955 154.89432703)" id="ZMYmhO5SWKs4uI3rC07bE"  >
<g style=""   >
		<g transform="matrix(1 0 0 1 -10.9595752 14.0488796353)" id="tvUUtJRd2UGb9E3ydtbEK" clip-path="url(#CLIPPATH_41)"  >
<clipPath id="CLIPPATH_41" >
	<rect id="clip0_714_5974" x="-90.5" y="-18" rx="0" ry="0" width="181" height="36" />
</clipPath>
<path style="stroke: none; stroke-width: 1; stroke-dasharray: none; stroke-linecap: butt; stroke-dashoffset: 0; stroke-linejoin: miter; stroke-miterlimit: 4; fill: rgb(32,32,32); fill-rule: nonzero; opacity: 1;"  transform=" translate(-9.0601753, -32.0505001353)" d="M 10.2568 35.8198 L 7.4459 35.8198 C 7.23687 35.82 7.04293 35.7093 6.93449 35.5278 C 6.82604 35.3464 6.81886 35.1206 6.91553 34.9324 L 8.61569 31.6231 L 8.63735 31.5806 L 10.3315 28.2812 C 10.8253 29.3196 11.1689 30.43 11.2541 31.5806 C 11.2541 31.5951 11.2541 31.6087 11.2541 31.6231 C 11.3504 32.9838 11.0778 34.4007 10.2568 35.8198 Z" stroke-linecap="round" />
</g>
		<g transform="matrix(1 0 0 1 -5.2715005 13.8330293808)" id="WIqCAbV-BYkXOFjAqBC2F" clip-path="url(#CLIPPATH_42)"  >
<clipPath id="CLIPPATH_42" >
	<rect id="clip0_714_5974" x="-90.5" y="-18" rx="0" ry="0" width="181" height="36" />
</clipPath>
<path style="stroke: none; stroke-width: 1; stroke-dasharray: none; stroke-linecap: butt; stroke-dashoffset: 0; stroke-linejoin: miter; stroke-miterlimit: 4; fill: rgb(32,32,32); fill-rule: nonzero; opacity: 1;"  transform=" translate(-14.74825, -31.8346498808)" d="M 10.2502 35.8216 C 11.0719 34.4017 11.3453 32.9833 11.252 31.6203 C 11.252 31.6059 11.252 31.5915 11.252 31.5771 C 11.1668 30.4257 10.8224 29.3138 10.3287 28.2747 L 10.381 28.1738 C 10.484 27.9732 10.6885 27.8475 10.9113 27.8477 L 12.4711 27.8477 C 13.7489 29.0241 14.964 30.2691 16.1111 31.5771 L 16.1485 31.6203 C 17.3183 32.9682 18.3828 34.3797 19.2463 35.8216 L 10.2502 35.8216 Z" stroke-linecap="round" />
</g>
		<g transform="matrix(1 0 0 1 2.7480731526 13.8312297422)" id="gxWx4XxvSyt8VANgOlZW1" clip-path="url(#CLIPPATH_43)"  >
<clipPath id="CLIPPATH_43" >
	<rect id="clip0_714_5974" x="-90.5" y="-18" rx="0" ry="0" width="181" height="36" />
</clipPath>
<path style="stroke: none; stroke-width: 1; stroke-dasharray: none; stroke-linecap: butt; stroke-dashoffset: 0; stroke-linejoin: miter; stroke-miterlimit: 4; fill: rgb(32,32,32); fill-rule: nonzero; opacity: 1;"  transform=" translate(-22.9470236526, -31.8307499717)" d="M 31.7548 31.574 L 30.1219 28.1843 C 30.0216 27.9759 29.8132 27.8437 29.5848 27.8438 L 12.4592 27.8438 C 13.7371 29.0202 14.9522 30.2652 16.0993 31.5732 L 16.1367 31.6164 C 17.3065 32.9643 18.3709 34.3758 19.2344 35.8177 L 32.8372 35.8177 C 33.0439 35.8177 33.2359 35.7092 33.345 35.5309 C 33.454 35.3526 33.4645 35.1297 33.3728 34.9416 L 31.8571 31.8319 L 31.7548 31.574 Z" stroke-linecap="round" />
</g>
		<g transform="matrix(1 0 0 1 -7.0077305 -0.0234205)" id="WSRKGp3ov2svtu44PakXF" clip-path="url(#CLIPPATH_44)"  >
<clipPath id="CLIPPATH_44" >
	<rect id="clip0_714_5974" x="-90.5" y="-18" rx="0" ry="0" width="181" height="36" />
</clipPath>
<path style="stroke: none; stroke-width: 1; stroke-dasharray: none; stroke-linecap: butt; stroke-dashoffset: 0; stroke-linejoin: miter; stroke-miterlimit: 4; fill: rgb(32,32,32); fill-rule: nonzero; opacity: 1;"  transform=" translate(-13.01202, -17.9782)" d="M 21.208 16.2227 L 12.8836 18.0096 L 5.90814 19.5001 L 4.81604 19.7337 C 4.8631 19.7177 5.27171 19.6191 5.90814 19.3961 C 7.18699 18.9479 9.38315 17.9998 11.3978 16.2227 L 21.208 16.2227 Z" stroke-linecap="round" />
</g>
		<g transform="matrix(1 0 0 1 -12.2298505 6.4664295)" id="n6MCPZvCw2yxi7UoWEE8j" clip-path="url(#CLIPPATH_45)"  >
<clipPath id="CLIPPATH_45" >
	<rect id="clip0_714_5974" x="-90.5" y="-18" rx="0" ry="0" width="181" height="36" />
</clipPath>
<path style="stroke: none; stroke-width: 1; stroke-dasharray: none; stroke-linecap: butt; stroke-dashoffset: 0; stroke-linejoin: miter; stroke-miterlimit: 4; fill: rgb(32,32,32); fill-rule: nonzero; opacity: 1;"  transform=" translate(-7.7899, -24.46805)" d="M 11.2623 26.9126 L 10.4316 26.9126 C 10.2413 26.9127 10.0624 27.0048 9.94983 27.1606 L 9.73395 27.4595 C 8.6396 25.5299 7.09856 23.9029 5.91084 22.8145 C 5.18925 22.1531 4.59837 21.6897 4.3175 21.4766 C 4.78288 21.7997 5.32072 22.1812 5.91084 22.6143 C 7.44442 23.7361 9.33655 25.206 11.2623 26.9126 Z" stroke-linecap="round" />
</g>
		<g transform="matrix(1 0 0 1 -13.44925 4.0719295)" id="l9HI7TUf72djhAfRvbp-G" clip-path="url(#CLIPPATH_46)"  >
<clipPath id="CLIPPATH_46" >
	<rect id="clip0_714_5974" x="-90.5" y="-18" rx="0" ry="0" width="181" height="36" />
</clipPath>
<path style="stroke: none; stroke-width: 1; stroke-dasharray: none; stroke-linecap: butt; stroke-dashoffset: 0; stroke-linejoin: miter; stroke-miterlimit: 4; fill: rgb(32,32,32); fill-rule: nonzero; opacity: 1;"  transform=" translate(-6.5705005, -22.07355)" d="M 1.29859 31.4909 C 0.683814 31.4909 0.178101 30.96 0.178101 30.3031 L 0.178101 13.844 C 0.178101 13.191 0.681573 12.6562 1.29859 12.6562 L 4.49049 12.6562 C 4.79426 12.6577 5.08367 12.7877 5.28902 13.015 C 5.49518 13.2402 5.60945 13.5365 5.60874 13.844 L 5.60874 14.6495 C 5.60878 15.0033 5.72851 15.3463 5.94787 15.6212 C 6.24759 15.9994 6.70006 16.2192 7.17817 16.2188 L 11.4689 16.2188 C 9.44081 17.9816 7.23419 18.9206 5.94787 19.3643 C 5.30844 19.585 4.89685 19.6828 4.84979 19.6988 L 5.94787 19.4712 L 12.9629 17.9952 L 6.56489 19.343 L 5.94787 19.4735 L 2.46913 20.2085 C 2.46913 20.2085 3.18773 20.6507 4.34482 21.4418 C 4.62793 21.6526 5.22179 22.1115 5.94787 22.7668 C 7.14306 23.8446 8.69232 25.4564 9.79264 27.367 L 6.79645 31.4484" stroke-linecap="round" />
</g>
		<g transform="matrix(1 0 0 1 1.1455695 4.1422292115)" id="OIfa2_i7JKWJDbqAx6BcS" clip-path="url(#CLIPPATH_47)"  >
<clipPath id="CLIPPATH_47" >
	<rect id="clip0_714_5974" x="-90.5" y="-18" rx="0" ry="0" width="181" height="36" />
</clipPath>
<path style="stroke: none; stroke-width: 1; stroke-dasharray: none; stroke-linecap: butt; stroke-dashoffset: 0; stroke-linejoin: miter; stroke-miterlimit: 4; fill: rgb(32,32,32); fill-rule: nonzero; opacity: 1;"  transform=" translate(-21.16532, -22.1438497115)" d="M 33.4127 31.5843 L 30.6368 27.195 C 30.527 27.0211 30.3375 26.9159 30.1341 26.9158 L 11.2636 26.9158 C 9.34157 25.2123 7.45392 23.7454 5.92184 22.6243 C 5.33246 22.1928 4.79612 21.812 4.33149 21.4866 C 3.18262 20.691 2.46924 20.245 2.46924 20.245 L 5.92184 19.5039 L 6.53437 19.372 L 12.8838 18.0067 L 21.2285 16.2227 L 32.4498 16.2227 C 33.4969 16.2198 34.345 15.3587 34.3479 14.2954 L 34.3479 13.9708 L 34.3636 13.4861 L 34.3636 13.4755 C 34.5261 12.9878 34.977 12.6597 35.4841 12.6602 L 37.3359 12.6602 C 37.488 12.6601 37.64 12.673 37.79 12.6988 L 37.9738 12.6602 L 38.6804 12.6602 C 39.3318 12.6622 39.8594 13.1979 39.8614 13.8593 L 39.8614 30.4284 C 39.8594 31.0898 39.3318 31.6254 38.6804 31.6275" stroke-linecap="round" />
</g>
		<g transform="matrix(1 0 0 1 9.1593545283 -3.3243705)" id="ZfVtkOWesN2Id8nV760Uv" clip-path="url(#CLIPPATH_48)"  >
<clipPath id="CLIPPATH_48" >
	<rect id="clip0_714_5974" x="-90.5" y="-18" rx="0" ry="0" width="181" height="36" />
</clipPath>
<path style="stroke: none; stroke-width: 1; stroke-dasharray: none; stroke-linecap: butt; stroke-dashoffset: 0; stroke-linejoin: miter; stroke-miterlimit: 4; fill: rgb(32,32,32); fill-rule: nonzero; opacity: 1;"  transform=" translate(-29.1791050283, -14.67725)" d="M 32.0236 15.46 L 25.6278 15.46 L 32.6458 13.8945 L 32.7205 14.6196 C 32.7552 14.8282 32.6978 15.0418 32.5636 15.2036 C 32.4294 15.3654 32.2319 15.4592 32.0236 15.46 Z" stroke-linecap="round" />
</g>
		<g transform="matrix(1 0 0 1 7.4023495 -15.88168)" id="UcBNWP1frYdNT8pDn6aQk" clip-path="url(#CLIPPATH_49)"  >
<clipPath id="CLIPPATH_49" >
	<rect id="clip0_714_5974" x="-90.5" y="-18" rx="0" ry="0" width="181" height="36" />
</clipPath>
<path style="stroke: none; stroke-width: 1; stroke-dasharray: none; stroke-linecap: butt; stroke-dashoffset: 0; stroke-linejoin: miter; stroke-miterlimit: 4; fill: rgb(32,32,32); fill-rule: nonzero; opacity: 1;"  transform=" translate(-27.4221, -2.1199405)" d="M 31.0189 4.05824 L 23.8253 0.189984 L 29.2081 0.181641 C 29.8565 0.181641 30.4534 0.655692 30.5609 1.30495 L 31.0189 4.05824 Z" stroke-linecap="round" />
</g>
		<g transform="matrix(1 0 0 1 6.3202995 -11.0136735)" id="vq4T9NycSHDG85_asWt3v" clip-path="url(#CLIPPATH_50)"  >
<clipPath id="CLIPPATH_50" >
	<rect id="clip0_714_5974" x="-90.5" y="-18" rx="0" ry="0" width="181" height="36" />
</clipPath>
<path style="stroke: none; stroke-width: 1; stroke-dasharray: none; stroke-linecap: butt; stroke-dashoffset: 0; stroke-linejoin: miter; stroke-miterlimit: 4; fill: rgb(32,32,32); fill-rule: nonzero; opacity: 1;"  transform=" translate(-26.34005, -6.987947)" d="M 32.6346 13.7923 L 20.0455 0.191179 L 23.8246 0.183594 L 31.0181 4.04958 L 32.6346 13.7923 Z" stroke-linecap="round" />
</g>
		<g transform="matrix(1 0 0 1 -8.4627981994 -10.1322484582)" id="z-SphpBpz8eviADzlHNqt" clip-path="url(#CLIPPATH_51)"  >
<clipPath id="CLIPPATH_51" >
	<rect id="clip0_714_5974" x="-90.5" y="-18" rx="0" ry="0" width="181" height="36" />
</clipPath>
<path style="stroke: none; stroke-width: 1; stroke-dasharray: none; stroke-linecap: butt; stroke-dashoffset: 0; stroke-linejoin: miter; stroke-miterlimit: 4; fill: rgb(32,32,32); fill-rule: nonzero; opacity: 1;"  transform=" translate(-11.5569523006, -7.8693720418)" d="M 12.2607 15.4614 L 7.70405 15.4614 C 7.49943 15.4615 7.30474 15.3719 7.17003 15.2155 C 7.03532 15.0591 6.97375 14.8512 7.00113 14.6453 L 7.29321 12.7726 C 19.6746 8.38021 14.8864 1.27475 14.1409 0.277344 L 14.5435 0.277344 C 17.8318 7.37446 15.4362 12.2523 12.2607 15.4614 Z" stroke-linecap="round" />
</g>
		<g transform="matrix(1 0 0 1 2.4327995 -10.1402345)" id="L1VLoIuP2rMAIf7hkdvVC" clip-path="url(#CLIPPATH_52)"  >
<clipPath id="CLIPPATH_52" >
	<rect id="clip0_714_5974" x="-90.5" y="-18" rx="0" ry="0" width="181" height="36" />
</clipPath>
<path style="stroke: none; stroke-width: 1; stroke-dasharray: none; stroke-linecap: butt; stroke-dashoffset: 0; stroke-linejoin: miter; stroke-miterlimit: 4; fill: rgb(32,32,32); fill-rule: nonzero; opacity: 1;"  transform=" translate(-22.45255, -7.861386)" d="M 32.6251 13.8966 L 25.6221 15.4591 L 12.28 15.4591 C 13.0883 14.6422 13.8816 13.7047 14.4956 12.6383 C 16.2339 9.61879 17.0989 4.68866 14.1415 0.275049 L 20.0487 0.263672 L 31.5054 12.6383 L 32.5437 13.8056 L 32.5721 13.8367 L 32.6251 13.8966 Z" stroke-linecap="round" />
</g>
		<g transform="matrix(1 0 0 1 -8.462672813 -11.464975)" id="CTKE-cxWv4cuTxq6-ocPp" clip-path="url(#CLIPPATH_53)"  >
<clipPath id="CLIPPATH_53" >
	<rect id="clip0_714_5974" x="-90.5" y="-18" rx="0" ry="0" width="181" height="36" />
</clipPath>
<path style="stroke: none; stroke-width: 1; stroke-dasharray: none; stroke-linecap: butt; stroke-dashoffset: 0; stroke-linejoin: miter; stroke-miterlimit: 4; fill: rgb(32,32,32); fill-rule: nonzero; opacity: 1;"  transform=" translate(-11.557077687, -6.5366455)" d="M 7.35913 12.7979 L 8.8703 1.45256 C 8.95919 0.785849 9.4776 0.287526 10.1402 0.286009 L 14.221 0.275391 C 14.968 1.27735 19.7674 8.39722 7.35913 12.7979 Z" stroke-linecap="round" />
</g>
</g>
</g>
</svg>